<?xml version="1.0" standalone="no"?>
<!DOCTYPE svg PUBLIC "-//W3C//DTD SVG 20010904//EN"
 "http://www.w3.org/TR/2001/REC-SVG-20010904/DTD/svg10.dtd">
<svg version="1.0" xmlns="http://www.w3.org/2000/svg"
 width="512.000000pt" height="512.000000pt" viewBox="0 0 512.000000 512.000000"
 preserveAspectRatio="xMidYMid meet">

<g transform="translate(0.000000,512.000000) scale(0.100000,-0.100000)"
fill="#000000" stroke="none">
<path d="M2818 5106 c-366 -65 -677 -320 -802 -656 -72 -194 -76 -249 -76
-1121 l0 -726 -57 -13 c-381 -84 -732 -359 -908 -710 -115 -229 -155 -433
-155 -786 l0 -134 -118 0 c-174 0 -162 26 -162 -342 0 -371 -14 -342 168 -346
l130 -4 17 -44 c25 -67 105 -148 183 -186 l67 -33 577 -3 c545 -2 582 -2 676
18 176 35 323 112 450 234 364 348 367 934 8 1286 l-56 54 0 396 0 395 -26 55
c-49 107 -127 163 -256 185 l-38 6 0 757 c0 640 3 767 15 821 44 184 186 331
385 396 73 24 214 24 295 1 201 -59 361 -235 394 -433 8 -49 11 -562 9 -1863
l-3 -1795 -130 -5 c-144 -6 -181 -18 -242 -82 -38 -40 -173 -314 -173 -352 0
-15 11 -38 25 -51 l24 -25 746 0 746 0 24 25 c15 14 25 36 25 53 0 41 -125
296 -168 344 -62 69 -99 82 -247 88 l-130 5 -5 1865 c-5 1731 -7 1870 -23
1930 -66 248 -202 454 -397 602 -90 69 -246 143 -365 174 -123 32 -310 40
-427 20z m92 -241 c0 -75 -2 -85 -18 -85 -37 0 -140 -32 -211 -66 -146 -69
-268 -192 -338 -342 -63 -135 -63 -128 -63 -974 l0 -767 -86 -3 c-47 -2 -88
-1 -90 1 -9 9 -3 1421 6 1515 18 180 74 329 174 463 83 110 224 223 343 274
74 32 204 68 246 68 l37 1 0 -85z m296 65 c248 -63 457 -233 573 -465 58 -117
81 -209 88 -352 l6 -123 -85 0 -85 0 -6 108 c-10 200 -71 338 -211 477 -106
106 -206 163 -335 192 l-81 18 0 82 0 83 28 0 c16 0 64 -9 108 -20z m664
-2760 l0 -1660 -85 0 -85 0 0 1660 0 1660 85 0 85 0 0 -1660z m-1386 290 c23
-5 54 -23 75 -44 l36 -36 3 -340 3 -340 -58 25 c-268 119 -601 91 -848 -70
-88 -57 -225 -198 -274 -282 -56 -95 -97 -196 -116 -288 -19 -94 -19 -273 0
-364 42 -199 153 -383 308 -512 l59 -50 -269 3 -270 3 -48 30 c-35 21 -56 45
-74 80 l-26 50 0 520 c0 564 2 595 56 770 144 467 560 803 1044 845 130 11
353 11 399 0z m-89 -850 c128 -39 270 -131 346 -222 127 -154 181 -301 180
-493 -2 -525 -537 -879 -1021 -675 -156 66 -299 201 -373 353 -63 127 -81 218
-74 366 4 81 12 135 27 181 92 270 304 457 580 510 76 15 257 4 335 -20z
m-1575 -995 l0 -185 -60 0 -60 0 0 185 0 185 60 0 60 0 0 -185z m3450 -280
c21 -11 40 -37 65 -90 19 -41 35 -77 35 -80 0 -3 -263 -5 -585 -5 -322 0 -585
2 -585 5 0 3 16 36 35 74 60 120 15 111 547 111 389 0 463 -2 488 -15z"/>
<path d="M2043 1466 c-190 -48 -355 -208 -415 -401 -30 -97 -30 -233 0 -330
61 -198 226 -353 423 -400 200 -47 393 8 540 154 107 106 162 222 175 365 23
257 -141 507 -392 598 -74 26 -252 34 -331 14z m273 -166 c244 -84 356 -350
246 -584 -97 -205 -348 -292 -555 -193 -342 164 -312 650 47 777 71 26 187 26
262 0z"/>
</g>
</svg>
